<mxfile host="app.diagrams.net" modified="2020-12-02T09:27:08.579Z" agent="5.0 (Macintosh; Intel Mac OS X 10_15_7) AppleWebKit/537.36 (KHTML, like Gecko) Chrome/86.0.4240.111 Safari/537.36" etag="Sz0MhhXFALiegKmpiRlm" version="13.10.5" type="github">
  <diagram id="-N9uZjTop2ZxeEDGDAec" name="Page-1">
    <mxGraphModel dx="1366" dy="679" grid="1" gridSize="10" guides="1" tooltips="1" connect="1" arrows="1" fold="1" page="1" pageScale="1" pageWidth="850" pageHeight="1100" math="0" shadow="0">
      <root>
        <mxCell id="0" />
        <mxCell id="1" parent="0" />
        <mxCell id="osoPOOX1DPih66SbFron-214" style="edgeStyle=orthogonalEdgeStyle;rounded=0;orthogonalLoop=1;jettySize=auto;html=1;entryX=0.5;entryY=0;entryDx=0;entryDy=0;fontSize=14;fontColor=#FFFFFF;" edge="1" parent="1" source="6" target="11">
          <mxGeometry relative="1" as="geometry" />
        </mxCell>
        <mxCell id="6" value="&lt;font face=&quot;helvetica&quot; style=&quot;font-size: 14px;&quot;&gt;1.注册设备成功&lt;/font&gt;" style="rounded=1;whiteSpace=wrap;html=1;fillColor=#006EFF;strokeColor=#006EFF;fontSize=14;fontColor=#FFFFFF;" parent="1" vertex="1">
          <mxGeometry x="363.5" y="10" width="120" height="60" as="geometry" />
        </mxCell>
        <mxCell id="10" value="是" style="text;html=1;strokeColor=none;fillColor=none;align=center;verticalAlign=middle;whiteSpace=wrap;rounded=0;fontSize=14;" parent="1" vertex="1">
          <mxGeometry x="430" y="195" width="40" height="20" as="geometry" />
        </mxCell>
        <mxCell id="214" style="edgeStyle=orthogonalEdgeStyle;rounded=0;orthogonalLoop=1;jettySize=auto;html=1;exitX=0;exitY=0.5;exitDx=0;exitDy=0;entryX=1;entryY=0.5;entryDx=0;entryDy=0;fontSize=14;" parent="1" source="11" target="155" edge="1">
          <mxGeometry relative="1" as="geometry" />
        </mxCell>
        <mxCell id="osoPOOX1DPih66SbFron-215" style="edgeStyle=orthogonalEdgeStyle;rounded=0;orthogonalLoop=1;jettySize=auto;html=1;fontSize=14;fontColor=#FFFFFF;" edge="1" parent="1" source="11" target="159">
          <mxGeometry relative="1" as="geometry" />
        </mxCell>
        <mxCell id="11" value="需要标签&lt;br&gt;推送能力" style="rhombus;whiteSpace=wrap;html=1;fillColor=#FF7200;strokeColor=#FF7200;fontColor=#FFFFFF;fontSize=14;" parent="1" vertex="1">
          <mxGeometry x="338.5" y="110" width="170" height="85" as="geometry" />
        </mxCell>
        <mxCell id="155" value="&lt;font face=&quot;helvetica&quot; style=&quot;font-size: 14px;&quot;&gt;流程结束&lt;br style=&quot;font-size: 14px;&quot;&gt;&lt;/font&gt;" style="rounded=1;whiteSpace=wrap;html=1;fillColor=#006EFF;strokeColor=#006EFF;fontSize=14;fontColor=#FFFFFF;" parent="1" vertex="1">
          <mxGeometry x="170" y="122.5" width="120" height="60" as="geometry" />
        </mxCell>
        <mxCell id="157" value="否" style="text;html=1;strokeColor=none;fillColor=none;align=center;verticalAlign=middle;whiteSpace=wrap;rounded=0;fontSize=14;" parent="1" vertex="1">
          <mxGeometry x="310" y="130" width="40" height="20" as="geometry" />
        </mxCell>
        <mxCell id="166" style="edgeStyle=orthogonalEdgeStyle;rounded=0;orthogonalLoop=1;jettySize=auto;html=1;exitX=0.5;exitY=1;exitDx=0;exitDy=0;entryX=0.5;entryY=0;entryDx=0;entryDy=0;fontSize=14;" parent="1" source="159" target="160" edge="1">
          <mxGeometry relative="1" as="geometry" />
        </mxCell>
        <mxCell id="159" value="&lt;font face=&quot;helvetica&quot; style=&quot;font-size: 14px;&quot;&gt;2.获取要绑定的标签列表&lt;/font&gt;" style="rounded=0;whiteSpace=wrap;html=1;fontSize=14;strokeColor=#00A4FF;fillColor=#00A4FF;fontColor=#FFFFFF;" parent="1" vertex="1">
          <mxGeometry x="333.5" y="230" width="180" height="80" as="geometry" />
        </mxCell>
        <mxCell id="dEcOAYOyA7_YvdhDpWTz-218" style="edgeStyle=orthogonalEdgeStyle;rounded=0;orthogonalLoop=1;jettySize=auto;html=1;exitX=0;exitY=0.5;exitDx=0;exitDy=0;entryX=0.5;entryY=1;entryDx=0;entryDy=0;fontSize=14;" parent="1" source="160" target="155" edge="1">
          <mxGeometry relative="1" as="geometry" />
        </mxCell>
        <mxCell id="osoPOOX1DPih66SbFron-216" style="edgeStyle=orthogonalEdgeStyle;rounded=0;orthogonalLoop=1;jettySize=auto;html=1;fontSize=14;fontColor=#FFFFFF;" edge="1" parent="1" source="160" target="167">
          <mxGeometry relative="1" as="geometry" />
        </mxCell>
        <mxCell id="160" value="是否获取成功" style="rhombus;whiteSpace=wrap;html=1;fillColor=#FF7200;strokeColor=#FF7200;fontColor=#FFFFFF;fontSize=14;" parent="1" vertex="1">
          <mxGeometry x="338.5" y="344" width="170" height="85" as="geometry" />
        </mxCell>
        <mxCell id="165" value="否" style="text;html=1;strokeColor=none;fillColor=none;align=center;verticalAlign=middle;whiteSpace=wrap;rounded=0;fontSize=14;" parent="1" vertex="1">
          <mxGeometry x="270" y="360" width="40" height="20" as="geometry" />
        </mxCell>
        <mxCell id="176" style="edgeStyle=orthogonalEdgeStyle;rounded=0;orthogonalLoop=1;jettySize=auto;html=1;exitX=0;exitY=0.5;exitDx=0;exitDy=0;entryX=0.5;entryY=0;entryDx=0;entryDy=0;fontSize=14;" parent="1" source="167" target="175" edge="1">
          <mxGeometry relative="1" as="geometry" />
        </mxCell>
        <mxCell id="osoPOOX1DPih66SbFron-218" style="edgeStyle=orthogonalEdgeStyle;rounded=0;orthogonalLoop=1;jettySize=auto;html=1;fontSize=14;fontColor=#FFFFFF;" edge="1" parent="1" source="167" target="170">
          <mxGeometry relative="1" as="geometry" />
        </mxCell>
        <mxCell id="167" value="历史绑定的标签&lt;br&gt;需要关心推送" style="rhombus;whiteSpace=wrap;html=1;fillColor=#FF7200;strokeColor=#FF7200;fontColor=#FFFFFF;fontSize=14;" parent="1" vertex="1">
          <mxGeometry x="338.5" y="456" width="170" height="85" as="geometry" />
        </mxCell>
        <mxCell id="169" value="是" style="text;html=1;strokeColor=none;fillColor=none;align=center;verticalAlign=middle;whiteSpace=wrap;rounded=0;fontSize=14;fontColor=#999999;" parent="1" vertex="1">
          <mxGeometry x="448.5" y="435" width="24" height="24" as="geometry" />
        </mxCell>
        <mxCell id="173" style="edgeStyle=orthogonalEdgeStyle;rounded=0;orthogonalLoop=1;jettySize=auto;html=1;exitX=0.5;exitY=1;exitDx=0;exitDy=0;entryX=0.5;entryY=0;entryDx=0;entryDy=0;fontSize=14;" parent="1" source="170" target="171" edge="1">
          <mxGeometry relative="1" as="geometry" />
        </mxCell>
        <mxCell id="170" value="&lt;font style=&quot;font-size: 14px;&quot;&gt;&lt;font face=&quot;helvetica&quot; style=&quot;font-size: 14px;&quot;&gt;3.按需解绑历史标签:&amp;nbsp;&lt;br style=&quot;font-size: 14px;&quot;&gt;&lt;/font&gt;&lt;span style=&quot;font-family: helvetica; font-size: 14px;&quot;&gt;delTags&lt;/span&gt;&lt;/font&gt;" style="rounded=0;whiteSpace=wrap;html=1;fontSize=14;strokeColor=#00A4FF;fillColor=#00A4FF;fontColor=#FFFFFF;" parent="1" vertex="1">
          <mxGeometry x="333.5" y="590" width="180" height="80" as="geometry" />
        </mxCell>
        <mxCell id="179" style="edgeStyle=orthogonalEdgeStyle;rounded=0;orthogonalLoop=1;jettySize=auto;html=1;exitX=0.5;exitY=1;exitDx=0;exitDy=0;entryX=0.5;entryY=0;entryDx=0;entryDy=0;fontSize=14;" parent="1" source="171" target="178" edge="1">
          <mxGeometry relative="1" as="geometry" />
        </mxCell>
        <mxCell id="171" value="&lt;font style=&quot;font-size: 14px;&quot;&gt;&lt;font face=&quot;helvetica&quot; style=&quot;font-size: 14px;&quot;&gt;5.绑定新标签列表：&lt;br style=&quot;font-size: 14px;&quot;&gt;调用appendTag&lt;/font&gt;&lt;span style=&quot;font-family: helvetica; font-size: 14px;&quot;&gt;s&lt;/span&gt;&lt;/font&gt;" style="rounded=0;whiteSpace=wrap;html=1;fontSize=14;strokeColor=#00A4FF;fillColor=#00A4FF;fontColor=#FFFFFF;" parent="1" vertex="1">
          <mxGeometry x="335" y="698" width="180" height="80" as="geometry" />
        </mxCell>
        <mxCell id="174" value="是" style="text;html=1;strokeColor=none;fillColor=none;align=center;verticalAlign=middle;whiteSpace=wrap;rounded=0;fontSize=14;fontColor=#999999;" parent="1" vertex="1">
          <mxGeometry x="453.5" y="525" width="24" height="24" as="geometry" />
        </mxCell>
        <mxCell id="180" style="edgeStyle=orthogonalEdgeStyle;rounded=0;orthogonalLoop=1;jettySize=auto;html=1;exitX=0.5;exitY=1;exitDx=0;exitDy=0;entryX=0;entryY=0.5;entryDx=0;entryDy=0;fontSize=14;" parent="1" source="175" target="178" edge="1">
          <mxGeometry relative="1" as="geometry" />
        </mxCell>
        <mxCell id="175" value="&lt;font face=&quot;helvetica&quot; style=&quot;font-size: 14px;&quot;&gt;4.清空历史标签并绑定新标签：clearAndAppendTags&lt;/font&gt;" style="rounded=0;whiteSpace=wrap;html=1;align=left;fontSize=14;strokeColor=#00A4FF;fillColor=#00A4FF;fontColor=#FFFFFF;" parent="1" vertex="1">
          <mxGeometry x="113.5" y="590" width="180" height="80" as="geometry" />
        </mxCell>
        <mxCell id="177" value="否" style="text;html=1;strokeColor=none;fillColor=none;align=center;verticalAlign=middle;whiteSpace=wrap;rounded=0;fontSize=14;fontColor=#999999;" parent="1" vertex="1">
          <mxGeometry x="260" y="470" width="24" height="24" as="geometry" />
        </mxCell>
        <mxCell id="183" style="edgeStyle=orthogonalEdgeStyle;rounded=0;orthogonalLoop=1;jettySize=auto;html=1;exitX=1;exitY=0.5;exitDx=0;exitDy=0;entryX=0;entryY=0.5;entryDx=0;entryDy=0;fontSize=14;" parent="1" source="178" target="182" edge="1">
          <mxGeometry relative="1" as="geometry" />
        </mxCell>
        <mxCell id="208" style="edgeStyle=orthogonalEdgeStyle;rounded=0;orthogonalLoop=1;jettySize=auto;html=1;exitX=0.5;exitY=1;exitDx=0;exitDy=0;entryX=0.5;entryY=0;entryDx=0;entryDy=0;fontSize=14;" parent="1" source="178" target="206" edge="1">
          <mxGeometry relative="1" as="geometry" />
        </mxCell>
        <mxCell id="178" value="&lt;font face=&quot;helvetica&quot; style=&quot;font-size: 14px;&quot;&gt;6.用户正常使用App&lt;br style=&quot;font-size: 14px;&quot;&gt;&lt;/font&gt;" style="rounded=0;whiteSpace=wrap;html=1;fontSize=14;strokeColor=#00A4FF;fillColor=#00A4FF;fontColor=#FFFFFF;" parent="1" vertex="1">
          <mxGeometry x="335" y="798" width="180" height="80" as="geometry" />
        </mxCell>
        <mxCell id="184" style="edgeStyle=orthogonalEdgeStyle;rounded=0;orthogonalLoop=1;jettySize=auto;html=1;exitX=0.5;exitY=0;exitDx=0;exitDy=0;entryX=1;entryY=0.5;entryDx=0;entryDy=0;fontSize=14;" parent="1" source="182" target="167" edge="1">
          <mxGeometry relative="1" as="geometry" />
        </mxCell>
        <mxCell id="186" style="edgeStyle=orthogonalEdgeStyle;rounded=0;orthogonalLoop=1;jettySize=auto;html=1;exitX=0.5;exitY=1;exitDx=0;exitDy=0;entryX=0.75;entryY=1;entryDx=0;entryDy=0;fontSize=14;" parent="1" source="182" target="178" edge="1">
          <mxGeometry relative="1" as="geometry" />
        </mxCell>
        <mxCell id="182" value="需要变更绑定的标签列表" style="rhombus;whiteSpace=wrap;html=1;fillColor=#FF7200;strokeColor=#FF7200;fontColor=#FFFFFF;fontSize=14;" parent="1" vertex="1">
          <mxGeometry x="560" y="795.5" width="170" height="85" as="geometry" />
        </mxCell>
        <mxCell id="185" value="是" style="text;html=1;strokeColor=none;fillColor=none;align=center;verticalAlign=middle;whiteSpace=wrap;rounded=0;fontSize=14;fontColor=#999999;" parent="1" vertex="1">
          <mxGeometry x="605" y="768" width="24" height="24" as="geometry" />
        </mxCell>
        <mxCell id="187" value="否" style="text;html=1;strokeColor=none;fillColor=none;align=center;verticalAlign=middle;whiteSpace=wrap;rounded=0;fontSize=14;fontColor=#999999;" parent="1" vertex="1">
          <mxGeometry x="550" y="874" width="24" height="24" as="geometry" />
        </mxCell>
        <mxCell id="209" style="edgeStyle=orthogonalEdgeStyle;rounded=0;orthogonalLoop=1;jettySize=auto;html=1;exitX=0.5;exitY=1;exitDx=0;exitDy=0;entryX=0.5;entryY=0;entryDx=0;entryDy=0;fontSize=14;" parent="1" source="206" target="207" edge="1">
          <mxGeometry relative="1" as="geometry" />
        </mxCell>
        <mxCell id="211" style="edgeStyle=orthogonalEdgeStyle;rounded=0;orthogonalLoop=1;jettySize=auto;html=1;exitX=0;exitY=0.5;exitDx=0;exitDy=0;entryX=0;entryY=0.75;entryDx=0;entryDy=0;fontSize=14;" parent="1" source="206" target="178" edge="1">
          <mxGeometry relative="1" as="geometry" />
        </mxCell>
        <mxCell id="206" value="完全关闭标签推送能力" style="rhombus;whiteSpace=wrap;html=1;fillColor=#FF7200;strokeColor=#FF7200;fontColor=#FFFFFF;fontSize=14;" parent="1" vertex="1">
          <mxGeometry x="306.5" y="898" width="170" height="85" as="geometry" />
        </mxCell>
        <mxCell id="207" value="&lt;font face=&quot;helvetica&quot; style=&quot;font-size: 14px;&quot;&gt;&lt;font style=&quot;font-size: 14px;&quot;&gt;7.调用清空标签:clearTags&lt;/font&gt;&lt;br style=&quot;font-size: 14px;&quot;&gt;&lt;/font&gt;" style="rounded=1;whiteSpace=wrap;html=1;fillColor=#006EFF;strokeColor=#006EFF;fontSize=14;fontColor=#FFFFFF;" parent="1" vertex="1">
          <mxGeometry x="335" y="998" width="120" height="60" as="geometry" />
        </mxCell>
        <mxCell id="210" value="是" style="text;html=1;strokeColor=none;fillColor=none;align=center;verticalAlign=middle;whiteSpace=wrap;rounded=0;fontSize=14;fontColor=#999999;" parent="1" vertex="1">
          <mxGeometry x="400" y="968" width="24" height="24" as="geometry" />
        </mxCell>
        <mxCell id="212" value="否" style="text;html=1;strokeColor=none;fillColor=none;align=center;verticalAlign=middle;whiteSpace=wrap;rounded=0;fontSize=14;fontColor=#999999;" parent="1" vertex="1">
          <mxGeometry x="306.5" y="833" width="24" height="24" as="geometry" />
        </mxCell>
      </root>
    </mxGraphModel>
  </diagram>
</mxfile>
